<?xml version="1.0" encoding="UTF-8"?> <!-- Generator: Adobe Illustrator 17.1.0, SVG Export Plug-In . SVG Version: 6.00 Build 0) --> <svg xmlns="http://www.w3.org/2000/svg" xmlns:xlink="http://www.w3.org/1999/xlink" id="Слой_7" x="0px" y="0px" viewBox="0 0 100 100" xml:space="preserve"> <g> <path fill="#4d4c4c" d="M19.1,26.4h19.2c0.5,0,0.9-0.4,0.9-0.9V15.2c0-0.5-0.4-0.9-0.9-0.9H19.1c-0.5,0-0.9,0.4-0.9,0.9v10.2 C18.1,25.9,18.6,26.4,19.1,26.4z M20,16.1h17.3v8.3H20V16.1z"></path> <path fill="#4d4c4c" d="M84.2,59.8c1.3-11.2-2.3-18.6-10.7-22c-0.3-0.1-0.7-0.1-0.9,0.1c-5.9,4.6-11.8,6.6-18.2,6.2h-6.2 c-1.1,0-2.1,0.2-3.1,0.5l2.7-38.9c0.1-0.9-0.3-1.9-0.9-2.6C46.2,2.4,45.3,2,44.3,2H14c-0.9,0-1.9,0.4-2.5,1.1s-1,1.6-0.9,2.6 l4.2,71.1v12.9c0,4.6,3.7,8.3,8.3,8.3h17.2h1.5h40.5c4,0,7.3-3.3,7.3-7.3v-1V67.9v-1.1C89.5,63.5,87.2,60.7,84.2,59.8z M16.6,77.7 l16.2,0.1v11H16.6V77.7z M34.7,77.8v-0.1v-1.8v-0.1v-7h6.7h1.9h44.3v19.9h-45h-1.9h-6V77.8z M87.6,66.8V67H43.5h-1.9h-6.8v-0.1 c0-2,1-3.7,2.6-4.7c0.6-0.3,1.2-0.6,1.9-0.7c0.3-0.1,0.6-0.1,1-0.1H42h1.9h38.2h0.1c0.6,0,1.2,0.1,1.8,0.3 C86.1,62.4,87.6,64.4,87.6,66.8z M48.2,46l6.1,0c6.6,0.4,13-1.7,19-6.3c7.3,3.2,10.2,9.7,9,19.8c-0.1,0-0.1,0-0.2,0H44h-1.9h-1.9 c-0.3,0-0.6,0-1,0.1v-4.6c0-3,1.5-5.6,3.7-7.2c0.6-0.4,1.3-0.8,2-1.1C45.9,46.2,47,46,48.2,46z M12.8,4.4c0.3-0.3,0.7-0.5,1.1-0.5 h30.3c0.4,0,0.8,0.2,1.1,0.5c0.3,0.3,0.4,0.7,0.4,1.2l-0.2,2.7H12.6l-0.2-2.7C12.4,5.1,12.5,4.7,12.8,4.4z M12.7,10.2h32.9 l-2.5,35.2c-3.4,1.8-5.7,5.4-5.7,9.5v5.2c-2.6,1.1-4.5,3.7-4.5,6.8v1.1v7.9H16.6L12.7,10.2z M23,96.1c-3.2,0-5.9-2.4-6.3-5.5h16.2 v0c0,2.2,1,4.1,2.5,5.5H23z M87.6,90.7c0,3-2.4,5.5-5.5,5.5H42.6h-1.9h-0.6c-3,0-5.5-2.4-5.5-5.5v0h6h1.9L87.6,90.7L87.6,90.7z"></path> <path fill="#4d4c4c" d="M61.3,84.8c7.3,0,12.8-2.6,12.8-6c0-3.4-5.5-6-12.8-6s-12.8,2.6-12.8,6C48.5,82.2,54,84.8,61.3,84.8z M61.3,74.6c6.4,0,10.9,2.2,10.9,4.2s-4.5,4.2-10.9,4.2c-6.4,0-10.9-2.2-10.9-4.2S54.9,74.6,61.3,74.6z"></path> </g> </svg> 