<?xml version="1.0" encoding="UTF-8"?> <!-- Generator: Adobe Illustrator 17.1.0, SVG Export Plug-In . SVG Version: 6.00 Build 0) --> <svg xmlns="http://www.w3.org/2000/svg" xmlns:xlink="http://www.w3.org/1999/xlink" id="Слой_3" x="0px" y="0px" viewBox="0 0 100 100" xml:space="preserve"> <g> <path fill="#4d4c4c" d="M93.1,55.2c-1.2-0.6-2.5-0.6-3.8-0.1c-1.2,0.5-2.2,1.4-2.7,2.7L82,69.2c-2.8-2.8-5.7-2.1-8.7-0.3 c5.1-8.2,7.5-18.2,7.3-30.3c8.5-9.3,11.3-21.1,8.8-35.8C89.3,2.3,88.9,2,88.5,2H53.6h-6.9H11.9c-0.4,0-0.8,0.3-0.9,0.7 c-2.5,14.6,0.2,26.2,8.4,35.4c0.3,12.2,3,22.8,8,31.1c-3.2-2.1-6.3-3.1-9.3-0.1l-4.7-11.5c-0.5-1.2-1.5-2.2-2.7-2.7 c-1.2-0.5-2.6-0.5-3.9,0.1c-2.3,1.1-3.4,3.8-2.5,6.1l7.4,18.8c0.7,1.8,1.8,3.5,3.3,4.8l13.9,12.8c0.2,0.2,0.4,0.2,0.6,0.2h17.7 c0.5,0,0.8-0.3,0.9-0.8c0.7-5.6,0.2-10.1-1.6-13.6c1,0.1,2,0.2,2.9,0.2c0.1,0,0.2,0,0.3,0c1.3,0,2.6-0.1,3.9-0.4 c-1.8,3.5-2.4,8-1.7,13.7c0.1,0.5,0.4,0.8,0.9,0.8h17.7c0.2,0,0.4-0.1,0.6-0.2l13.9-12.8c1.4-1.3,2.6-3,3.3-4.8l7.4-18.8 C96.6,59,95.5,56.3,93.1,55.2z M53.6,3.8h34.1c2.1,13.1-0.2,23.6-7.2,32.1c-0.4,0.5-0.7,0.9-1.1,1.4c-0.2-0.4-0.4-0.8-0.7-1.3 C72.1,23.3,61.8,12.4,48,3.8H53.6z M19.3,35.3c-6.6-8.4-8.8-18.8-6.7-31.5h31.9c1.6,0.9,3.2,1.9,4.7,2.9c-12.6,8.2-22,18.3-28,30.2 c-0.1,0.1-0.1,0.2-0.2,0.3C20.4,36.7,19.9,36,19.3,35.3z M46.3,96.2H29.8L16.2,83.6c-1.2-1.1-2.2-2.6-2.8-4.1L6,60.7 c-0.6-1.5,0.1-3.2,1.6-3.9c0.8-0.3,1.6-0.4,2.4-0.1c0.8,0.3,1.4,0.9,1.7,1.7l6.1,14.9c0.4,1,1,1.9,1.7,2.6l10.1,10.3 c0.3,0.4,0.9,0.4,1.3,0s0.4-0.9,0-1.3L20.7,74.6c-0.6-0.6-1-1.3-1.3-2l-0.6-1.5c0,0,0,0,0,0c3-3.5,5.8-1.7,10.9,2.2 c0.2,0.2,0.4,0.3,0.6,0.5c2.3,1.7,4.8,3.5,7.6,4.7c0,0,0,0,0.1,0c1.2,0.5,2.2,1.1,3.1,1.7c1.1,0.8,2.1,1.8,2.9,2.9 C46.2,86.3,46.9,90.6,46.3,96.2z M49.7,82.1c-0.1,0-0.2,0-0.3,0c-1.5,0-2.9-0.2-4.3-0.5c-1.6-2-3.7-3.6-6.5-4.7 c-2.6-1.1-4.9-2.8-7-4.4c-6.3-8.3-9.8-19.4-10.4-32.6c0,0,0.1,0,0.1,0c0.3,0,0.5-0.2,0.7-0.5c5.9-12.4,15.6-23,28.8-31.4 c0,0,0,0,0,0C63.2,16.4,72.5,27,78.3,39.3c0.1,0.2,0.3,0.4,0.5,0.5c0.1,13.3-3.2,24-10,32.4c-2.2,1.7-4.7,3.5-7.4,4.7 c-2.7,1.1-4.8,2.6-6.4,4.6C53.3,81.8,51.5,82.1,49.7,82.1z M94,60.7l-7.4,18.8c-0.6,1.6-1.6,3-2.8,4.1L70.2,96.2H53.7 c-0.6-5.7,0.2-10.1,2.5-13.3c1.4-2,3.4-3.4,5.9-4.5c3-1.3,5.7-3.3,8-5.1c0.1-0.1,0.1-0.1,0.2-0.2c5.1-3.9,7.9-5.7,10.9-2.2 c0,0,0,0,0,0l-0.6,1.5c-0.3,0.8-0.8,1.5-1.3,2L69.1,84.9c-0.3,0.4-0.3,0.9,0,1.3c0.4,0.3,0.9,0.3,1.3,0l10.1-10.3 c0.7-0.8,1.3-1.6,1.7-2.6l6.1-14.9c0.3-0.8,0.9-1.4,1.7-1.7c0.8-0.3,1.6-0.3,2.4,0.1C93.9,57.5,94.6,59.2,94,60.7z"></path> <path fill="#4d4c4c" d="M56.2,37.9c0.1,0,0.1,0,0.2,0c1.3-0.3,2.4-0.6,3.5-0.9c4.5-1.2,7-1.9,10.8-0.6c0.5,0.2,1-0.1,1.2-0.6 c0.2-0.5-0.1-1-0.6-1.2c-4.4-1.5-7.4-0.7-11.9,0.5c-1,0.3-2.2,0.6-3.4,0.9c-0.5,0.1-0.8,0.6-0.7,1.1C55.4,37.7,55.8,37.9,56.2,37.9 z"></path> <path fill="#4d4c4c" d="M30.2,36.4C34.1,35,36.5,35.7,41,37c1.1,0.3,2.2,0.6,3.5,0.9c0.1,0,0.1,0,0.2,0c0.4,0,0.8-0.3,0.9-0.7 c0.1-0.5-0.2-1-0.7-1.1c-1.3-0.3-2.4-0.6-3.4-0.9C37,34,34,33.1,29.6,34.7c-0.5,0.2-0.7,0.7-0.6,1.2C29.2,36.3,29.8,36.6,30.2,36.4 z"></path> <path fill="#4d4c4c" d="M68.2,43.3c-2.9,1.6-6.1,1.6-10-0.1c-0.5-0.2-1,0-1.2,0.5c-0.2,0.5,0,1,0.5,1.2c2.2,0.9,4.3,1.4,6.2,1.4 c1.9,0,3.7-0.5,5.4-1.4c1.2-0.7,2.7-0.4,3.7,0.5l0.7,0.6c0.4,0.3,0.9,0.3,1.3,0c0.3-0.4,0.3-0.9,0-1.3L74,44.1 C72.4,42.6,70.1,42.2,68.2,43.3z"></path> <path fill="#4d4c4c" d="M43.9,43.7c-0.2-0.5-0.7-0.7-1.2-0.5c-3.9,1.6-7.2,1.7-10,0.1c-1.9-1-4.2-0.7-5.8,0.8l-0.7,0.6 c-0.4,0.3-0.4,0.9,0,1.3c0.3,0.4,0.9,0.4,1.3,0l0.7-0.6c1-1,2.5-1.2,3.7-0.5c1.7,0.9,3.5,1.4,5.4,1.4c1.9,0,4-0.5,6.2-1.4 C43.9,44.7,44.1,44.1,43.9,43.7z"></path> <path fill="#4d4c4c" d="M43.9,55.2c-0.2,0.5,0,1,0.4,1.2c2.1,1,4.2,1.5,6.2,1.5c2,0,4-0.5,6-1.5c0.4-0.2,0.6-0.8,0.4-1.2 c-0.2-0.4-0.8-0.6-1.2-0.4c-3.4,1.7-6.9,1.7-10.6,0C44.7,54.6,44.1,54.8,43.9,55.2z"></path> <path fill="#4d4c4c" d="M59.3,66.6c-0.1-0.3-0.3-0.6-0.6-0.7c-3.1-1.2-5.6-1.7-8.2-1.7c-2.5,0-5.2,0.5-8.6,1.7 c-0.3,0.1-0.5,0.3-0.6,0.7s0,0.6,0.2,0.8c2.6,2.5,5.4,3.8,8.3,3.8c2.9,0,5.9-1.3,9.1-3.8C59.3,67.2,59.4,66.9,59.3,66.6z M44.1,67.1c2.5-0.8,4.6-1.1,6.5-1.1c1.9,0,3.8,0.3,5.9,1C51.9,70.1,47.9,70.2,44.1,67.1z"></path> </g> </svg> 