<?xml version="1.0" encoding="UTF-8"?> <!-- Generator: Adobe Illustrator 17.1.0, SVG Export Plug-In . SVG Version: 6.00 Build 0) --> <svg xmlns="http://www.w3.org/2000/svg" xmlns:xlink="http://www.w3.org/1999/xlink" id="Слой_8" x="0px" y="0px" viewBox="0 0 100 100" xml:space="preserve"> <g> <path fill="#4d4c4c" d="M97.1,49.5c-0.8-1-2-1.6-3.2-1.6H25.5h-1.9H11.2v-2.3c1.7-1.1,2.9-3,2.9-5.1c0-2.2-1.1-4.1-2.9-5.1V23.1 c0-2.8,1.9-5.2,4.3-5.2h0.1c1.9,0,3.4,1.4,4,3.4c0.2,0.5,0.3,1.1,0.3,1.7v0.2h1.9h1.8h1.9v-1.9v-0.8c0-2.2-0.7-4.2-1.9-5.9 c-0.7-0.9-1.5-1.8-2.4-2.4c-1.7-1.2-3.7-1.9-5.9-1.9h-0.2c-2.2,0-4.2,0.7-5.9,1.9c-0.9,0.7-1.8,1.5-2.4,2.4 c-1.2,1.7-1.9,3.7-1.9,5.9v14.8c-1.7,1.1-2.9,3-2.9,5.1c0,2.2,1.2,4.1,2.9,5.1v2.5c-0.8,0.2-1.5,0.7-2,1.3c-0.8,1-1.1,2.3-0.8,3.5 l7,29.9c0.9,3.9,4.4,6.7,8.4,6.7h64.8c4,0,7.5-2.8,8.4-6.7l7-29.9C98.2,51.8,97.9,50.5,97.1,49.5z M6.8,20.5c0-4.6,3.7-8.3,8.3-8.3 h0.2c4.6,0,8.3,3.7,8.3,8.3v0.8h-2c-0.7-3-3.1-5.3-6-5.3h-0.1c-3.4,0-6.2,3.2-6.2,7v10.2v1.3c-0.4-0.1-0.9-0.1-1.3-0.1 c-0.4,0-0.9,0.1-1.3,0.1V20.5z M3.9,40.5c0-1,0.4-1.9,1-2.7c0.5-0.6,1.1-1,1.9-1.3c0.4-0.1,0.8-0.2,1.3-0.2c0.5,0,0.9,0.1,1.3,0.2 c0.7,0.2,1.4,0.7,1.9,1.3c0.6,0.7,1,1.6,1,2.7c0,1-0.4,1.9-1,2.7c-0.5,0.6-1.1,1-1.9,1.3c-0.4,0.1-0.8,0.2-1.3,0.2 c-0.5,0-0.9-0.1-1.3-0.2c-0.7-0.2-1.4-0.7-1.9-1.3C4.3,42.5,3.9,41.5,3.9,40.5z M8.1,46.6c0.5,0,0.9-0.1,1.3-0.1V48H6.8v-1.6 C7.2,46.5,7.6,46.6,8.1,46.6z M4.4,50.7c0.1-0.2,0.3-0.3,0.5-0.5c0.4-0.2,0.8-0.4,1.2-0.4h0.7h2.6h0.9h13.3h1.9h68.4 c0.7,0,1.3,0.3,1.7,0.8c0.4,0.5,0.6,1.2,0.4,1.9l-1.1,4.8H5.1l-1.1-4.8C3.8,51.9,3.9,51.2,4.4,50.7z M89,82.5 c-0.7,3.1-3.4,5.2-6.6,5.2H17.6c-3.2,0-5.9-2.2-6.6-5.2L5.5,59.3h89L89,82.5z"></path> <path fill="#4d4c4c" d="M24.8,84.4h10.4c0.5,0,0.9-0.4,0.9-0.9c0-0.5-0.4-0.9-0.9-0.9H24.8c-5.6,0-10.1-4.5-10.1-10.1v-0.1 c0-0.5-0.4-0.9-0.9-0.9c-0.5,0-0.9,0.4-0.9,0.9v0.1C12.9,79,18.2,84.4,24.8,84.4z"></path> </g> </svg> 