<?xml version="1.0" encoding="UTF-8"?> <!-- Generator: Adobe Illustrator 17.1.0, SVG Export Plug-In . SVG Version: 6.00 Build 0) --> <svg xmlns="http://www.w3.org/2000/svg" xmlns:xlink="http://www.w3.org/1999/xlink" id="Слой_4" x="0px" y="0px" viewBox="0 0 100 100" xml:space="preserve"> <g> <path fill="#4d4c4c" d="M60.3,11.9c0-0.9-0.4-1.8-1.1-2.5c-1.2-1.2-3.3-1.3-4.6-0.2c-2.4-2.1-5.4-3.3-8.6-3.3 c-2.2,0-4.3,0.5-6.2,1.6l-2-1.5c-2.7-2.1-5.9-3.5-9.3-3.9c0,0-0.1,0-0.1,0C17.6,2,8.9,10.8,8.9,21.5V97c0,0.5,0.4,0.9,0.9,0.9 s0.9-0.4,0.9-0.9V21.5c0-9.7,7.9-17.7,17.6-17.7c3,0.4,5.9,1.6,8.3,3.5l1.5,1.2c-0.5,0.3-0.9,0.7-1.3,1.1l-1.6,1.6 c-0.3,0.3-0.6,0.6-0.8,0.9l-0.1-0.1c-1.9-1.6-4.2-2.5-6.7-2.5h-0.1c-6.7,0-12.1,5.4-12.1,12.1v75.4c0,0.5,0.4,0.9,0.9,0.9 c0.5,0,0.9-0.4,0.9-0.9V21.7c0-5.6,4.6-10.2,10.2-10.2h0.1c2,0,4,0.7,5.5,2.1l0.3,0.2c-2.9,4.8-2.4,11,1.4,15.3l-0.7,0.7 c-1.4,1.4-1.4,3.5,0,4.9c0.7,0.7,1.5,1,2.4,1c0.9,0,1.8-0.4,2.4-1l20.4-20.4C59.9,13.7,60.3,12.8,60.3,11.9z M34.7,15 c0.3-0.5,0.6-1.1,1-1.5c0.2-0.3,0.5-0.6,0.7-0.8l1.6-1.6C40.2,8.9,43,7.8,46,7.8c2.7,0,5.3,1,7.3,2.7L36,27.8 C32.8,24.2,32.4,19,34.7,15z M57.9,13L37.5,33.4c-0.6,0.6-1.6,0.6-2.3,0c-0.6-0.6-0.6-1.6,0-2.2l1.3-1.3c0,0,0.1-0.1,0.1-0.1 l18.6-18.6c0,0,0.1-0.1,0.1-0.1l0.3-0.3c0.3-0.3,0.7-0.5,1.1-0.5c0.4,0,0.8,0.2,1.2,0.5c0.3,0.3,0.5,0.7,0.5,1.1 C58.4,12.3,58.2,12.7,57.9,13z"></path> <path fill="#4d4c4c" d="M67.9,59.4c-0.4-0.4-1-0.4-1.3,0c-0.4,0.4-0.4,1,0,1.3l5.8,5.7c0.2,0.2,0.4,0.3,0.7,0.3 c0.2,0,0.5-0.1,0.7-0.3c0.4-0.4,0.4-1,0-1.3L67.9,59.4z"></path> <path fill="#4d4c4c" d="M73.6,53.7c-0.4-0.4-1-0.4-1.3,0c-0.4,0.4-0.4,1,0,1.3l5.8,5.7c0.2,0.2,0.4,0.3,0.7,0.3 c0.2,0,0.5-0.1,0.7-0.3c0.4-0.4,0.4-1,0-1.3L73.6,53.7z"></path> <path fill="#4d4c4c" d="M79.3,48c-0.4-0.4-1-0.4-1.3,0c-0.4,0.4-0.4,1,0,1.3l5.8,5.7c0.2,0.2,0.4,0.3,0.7,0.3 c0.2,0,0.5-0.1,0.7-0.3c0.4-0.4,0.4-1,0-1.3L79.3,48z"></path> <path fill="#4d4c4c" d="M90.8,48L85,42.3c-0.4-0.4-1-0.4-1.3,0c-0.4,0.4-0.4,1,0,1.3l5.8,5.7c0.2,0.2,0.4,0.3,0.7,0.3 c0.2,0,0.5-0.1,0.7-0.3C91.2,49,91.2,48.4,90.8,48z"></path> <path fill="#4d4c4c" d="M49.1,40.6c-0.4-0.4-1-0.4-1.3,0c-0.4,0.4-0.4,1,0,1.3l5.8,5.7c0.2,0.2,0.4,0.3,0.7,0.3 c0.2,0,0.5-0.1,0.7-0.3c0.4-0.4,0.4-1,0-1.3L49.1,40.6z"></path> <path fill="#4d4c4c" d="M59.3,41.9c0.2,0.2,0.4,0.3,0.7,0.3c0.2,0,0.5-0.1,0.7-0.3c0.4-0.4,0.4-1,0-1.3l-5.8-5.7 c-0.4-0.4-1-0.4-1.3,0c-0.4,0.4-0.4,1,0,1.3L59.3,41.9z"></path> <path fill="#4d4c4c" d="M65.7,36.5c0.2,0,0.5-0.1,0.7-0.3c0.4-0.4,0.4-1,0-1.3l-5.8-5.7c-0.4-0.4-1-0.4-1.3,0c-0.4,0.4-0.4,1,0,1.3 l5.8,5.7C65.2,36.4,65.4,36.5,65.7,36.5z"></path> <path fill="#4d4c4c" d="M70.7,30.6c0.2,0.2,0.4,0.3,0.7,0.3c0.2,0,0.5-0.1,0.7-0.3c0.4-0.4,0.4-1,0-1.3l-5.8-5.7 c-0.4-0.4-1-0.4-1.3,0c-0.4,0.4-0.4,1,0,1.3L70.7,30.6z"></path> <path fill="#4d4c4c" d="M79.5,37.6c0.2,0.2,0.4,0.3,0.7,0.3c0.2,0,0.5-0.1,0.7-0.3c0.4-0.4,0.4-1,0-1.3L77.6,33 c-0.4-0.4-1-0.4-1.3,0c-0.4,0.4-0.4,1,0,1.3L79.5,37.6z"></path> <path fill="#4d4c4c" d="M70.5,38.7c-0.4,0.4-0.4,1,0,1.3l3.2,3.2c0.2,0.2,0.4,0.3,0.7,0.3s0.5-0.1,0.7-0.3c0.4-0.4,0.4-1,0-1.3 l-3.2-3.2C71.5,38.3,70.9,38.3,70.5,38.7z"></path> <path fill="#4d4c4c" d="M68.8,49.2c0.2,0,0.5-0.1,0.7-0.3c0.4-0.4,0.4-1,0-1.3l-3.2-3.2c-0.4-0.4-1-0.4-1.3,0c-0.4,0.4-0.4,1,0,1.3 l3.2,3.2C68.3,49.1,68.5,49.2,68.8,49.2z"></path> <path fill="#4d4c4c" d="M60.5,50.1c-0.4-0.4-1-0.4-1.3,0c-0.4,0.4-0.4,1,0,1.3l3.2,3.2c0.2,0.2,0.4,0.3,0.7,0.3s0.5-0.1,0.7-0.3 c0.4-0.4,0.4-1,0-1.3L60.5,50.1z"></path> <path fill="#4d4c4c" d="M59.2,17.8c-0.4,0.4-0.4,1,0,1.3l3.2,3.2c0.2,0.2,0.4,0.3,0.7,0.3s0.5-0.1,0.7-0.3c0.4-0.4,0.4-1,0-1.3 l-3.2-3.2C60.1,17.5,59.5,17.5,59.2,17.8z"></path> <path fill="#4d4c4c" d="M56.7,28.1c0.2,0.2,0.4,0.3,0.7,0.3c0.2,0,0.5-0.1,0.7-0.3c0.4-0.4,0.4-1,0-1.3l-3.2-3.2 c-0.4-0.4-1-0.4-1.3,0c-0.4,0.4-0.4,1,0,1.3L56.7,28.1z"></path> <path fill="#4d4c4c" d="M51,33.8c0.2,0.2,0.4,0.3,0.7,0.3c0.2,0,0.5-0.1,0.7-0.3c0.4-0.4,0.4-1,0-1.3l-3.2-3.2 c-0.4-0.4-1-0.4-1.3,0c-0.4,0.4-0.4,1,0,1.3L51,33.8z"></path> <path fill="#4d4c4c" d="M43.4,34.9c-0.4-0.4-1-0.4-1.3,0c-0.4,0.4-0.4,1,0,1.3l3.2,3.2c0.2,0.2,0.4,0.3,0.7,0.3 c0.2,0,0.5-0.1,0.7-0.3c0.4-0.4,0.4-1,0-1.3L43.4,34.9z"></path> </g> </svg> 