<?xml version="1.0" encoding="UTF-8"?> <!-- Generator: Adobe Illustrator 17.1.0, SVG Export Plug-In . SVG Version: 6.00 Build 0) --> <svg xmlns="http://www.w3.org/2000/svg" xmlns:xlink="http://www.w3.org/1999/xlink" id="Слой_9" x="0px" y="0px" viewBox="0 0 100 100" xml:space="preserve"> <g> <path fill="#4d4c4c" d="M97,54.7L84.1,6.9c-0.4-1.6-1.8-2.6-3.4-2.6h-4.9h-1.9H70c-3.1,0-5.9,1.6-8.8,3.4 c-3.1,1.8-6.3,3.8-10.2,3.8h-2.1c-3.9,0-7.1-1.9-10.2-3.8c-2.9-1.7-5.7-3.4-8.8-3.4h-3H25h-5.7c-1.6,0-3,1.1-3.4,2.6L3,54.7 c-2.1,7.8-0.9,15.2,3.4,20.7c1.2,1.6,2.6,3,4.2,4.1l1.5,15.1c0,0.5,0.5,0.9,1,0.9c24.8,0.2,41.3,0.2,52.3,0.2 c21.6,0,21.8-0.3,22.1-0.5c0.2-0.2,0.3-0.4,0.3-0.7c0-0.5,0.9-8.1,1.7-15c1.6-1.2,3-2.5,4.2-4.1C97.9,69.9,99.1,62.5,97,54.7z M30,6.2c2.6,0,5.1,1.5,7.8,3.1c3.2,1.9,6.8,4,11.2,4h2.1c4.4,0,8-2.1,11.2-4c2.7-1.6,5.2-3.1,7.8-3.1h3.6l-0.3,7.3h-0.8 C62.4,13.4,54,21.8,54,32.1v2.5h-8v-2.5c0-10.3-8.4-18.6-18.6-18.6h-0.1L27,6.2H30z M73.3,15.4l-0.5,11.5c-0.2,4.4-3.7,7.8-8.1,7.8 h-8.8v-2.5c0-9.2,7.5-16.7,16.7-16.7H73.3z M44.1,34.6H36c-4.4,0-7.9-3.4-8.1-7.8l-0.5-11.5c9.2,0,16.7,7.5,16.7,16.7V34.6z M85.9,93.7c-5.8,0.3-45,0.1-71.9-0.1L12.7,81c3.6,2.1,8,3.2,12.8,3.2h0.3c0,0,0.1,0,0.1,0l17.4-2.4h13.3L74,84.1c0,0,0.1,0,0.1,0 h0.3c4.8,0,9.2-1.1,12.8-3.2C86.7,86,86.1,91.6,85.9,93.7z M92.1,74.3c-0.7,0.9-1.5,1.8-2.4,2.6c-0.7,0.6-1.4,1.1-2.1,1.7 c-3.6,2.4-8.1,3.7-13.1,3.7h-0.2l-17.4-2.4c0,0-0.1,0-0.1,0H43.3c0,0-0.1,0-0.1,0l-17.4,2.4h-0.2c-5,0-9.5-1.3-13.1-3.7 c-0.7-0.5-1.4-1-2.1-1.6c-0.9-0.8-1.7-1.7-2.4-2.6c-3.9-5.1-5-11.9-3-19.1L17.8,7.4c0.2-0.7,0.8-1.2,1.6-1.2h5.8l0.3,7.3l0.1,1.9 l0.5,11.6c0.2,5.4,4.6,9.6,10,9.6h8.1H46h8h1.9h8.8c5.4,0,9.8-4.2,10-9.6l0.5-11.6l0.1-1.9l0.3-7.3h5c0.7,0,1.4,0.5,1.6,1.2 l12.9,47.9C97.1,62.4,96,69.2,92.1,74.3z"></path> <path fill="#4d4c4c" d="M13.3,48c0.2-0.5-0.1-1.1-0.6-1.2c-0.5-0.2-1.1,0.1-1.2,0.6c-4,12.2-3.5,20.4,1.6,25.5 c0.2,0.2,0.4,0.3,0.7,0.3c0.2,0,0.5-0.1,0.7-0.3c0.4-0.4,0.4-1,0-1.4C9.9,67,9.5,59.5,13.3,48z"></path> <path fill="#4d4c4c" d="M65.8,71.3c-8.8-2.2-19.3-2.2-32.1,0c-0.5,0.1-0.9,0.6-0.8,1.1c0.1,0.5,0.6,0.9,1.1,0.8 c12.5-2.1,22.8-2.1,31.4,0c0.1,0,0.2,0,0.2,0c0.4,0,0.8-0.3,0.9-0.7C66.7,72,66.3,71.5,65.8,71.3z"></path> </g> </svg> 