<?xml version="1.0" encoding="UTF-8"?> <!-- Generator: Adobe Illustrator 17.1.0, SVG Export Plug-In . SVG Version: 6.00 Build 0) --> <svg xmlns="http://www.w3.org/2000/svg" xmlns:xlink="http://www.w3.org/1999/xlink" id="Слой_5" x="0px" y="0px" viewBox="0 0 100 100" xml:space="preserve"> <path fill="#4d4c4c" d="M90,2H33.3h-4.7h-1.1c-4.3,0-7.9,3.5-7.9,7.9v16.8c0,2.6,2.1,4.7,4.8,4.7c2.6,0,4.7-2.1,4.7-4.7v-1.8 c0-0.9,0.7-1.6,1.6-1.6c0.9,0,1.6,0.7,1.6,1.6v10.9c0,2.5,2.1,4.6,4.6,4.6c2.5,0,4.6-2.1,4.6-4.6V24.6c0-0.9,0.7-1.6,1.6-1.6h0.8 c0.9,0,1.6,0.7,1.6,1.6v18.2v1.9v3.4c-0.8,0-1.7,0-2.5,0c-16.1,0-33.1,2.4-38.6,7c-1.2,1-1.8,2-1.9,3.2c0,0,0,0.1,0,0.1 c0,0.1,0,0.1,0,0.2C2.8,80.4,20.7,98,42.5,98h0.8C65.2,98,83,80.4,83.4,58.7c0-0.1,0-0.1,0-0.2c0,0,0-0.1,0-0.1 c0-1.2-0.7-2.2-1.9-3.2c-4.1-3.4-14.2-5.6-25.8-6.5v-3.9v-1.9v-22c0-1.2,0.1-2.5,0.3-3.7h34c4.2,0,7.5-3.4,7.5-7.5V9.5 C97.6,5.4,94.2,2,90,2z M43.3,96.1h-0.8c-19.7,0-36-15-38-34.2c5.8,4.5,22.5,6.9,38.4,6.9s32.6-2.4,38.4-6.9 C79.3,81.1,63,96.1,43.3,96.1z M81.5,58.4c0,0.1,0,0.2,0,0.2c-0.4,4-16.1,8.3-38.6,8.3c-22.5,0-38.2-4.4-38.6-8.3c0-0.1,0-0.2,0-0.2 c0.2-4,16-8.4,38.6-8.4c0.8,0,1.7,0,2.5,0v3.5c0,2.8,2.3,5.1,5.2,5.1c2.8,0,5.1-2.3,5.1-5.1v-3C71.3,51.8,81.3,55.2,81.5,58.4z M53.9,20.9v22v1.9v3.8v1.9v3.1c0,1.8-1.5,3.2-3.3,3.2c-1.8,0-3.2-1.5-3.2-3.2V50v-1.9v-3.5v-1.9V24.6c0-1.9-1.5-3.5-3.5-3.5h-0.8 c-1.9,0-3.5,1.5-3.5,3.5v11.2c0,1.5-1.2,2.7-2.8,2.7c-1.5,0-2.7-1.2-2.7-2.7V24.9c0-1.9-1.5-3.5-3.5-3.5c-1.9,0-3.5,1.5-3.5,3.5v1.8 c0,1.6-1.3,2.8-2.9,2.8c-1.6,0-2.8-1.3-2.8-2.8V12.3V9.9c0-3.3,2.7-6,6-6h1.1h4.7h26.1c-0.4,1.5-1,2.9-2,4.5 c-1.3,2.2-2.2,4.5-2.8,6.9c-0.1,0.6-0.3,1.2-0.4,1.9C54,18.4,53.9,19.6,53.9,20.9z M95.7,9.7c0,3.1-2.5,5.7-5.7,5.7H56.5 c0.5-2.1,1.4-4.1,2.5-6c1.1-1.9,2-3.6,2.3-5.5H90c3.1,0,5.7,2.5,5.7,5.7V9.7z"></path> </svg> 