<?xml version="1.0" encoding="UTF-8"?> <!-- Generator: Adobe Illustrator 17.1.0, SVG Export Plug-In . SVG Version: 6.00 Build 0) --> <svg xmlns="http://www.w3.org/2000/svg" xmlns:xlink="http://www.w3.org/1999/xlink" id="Слой_10" x="0px" y="0px" viewBox="0 0 100 100" xml:space="preserve"> <g> <path fill="#4d4c4c" d="M59.4,8.4c-0.3-1.5,0.1-3.1,1.4-5c0.3-0.4,0.2-1-0.2-1.3c-0.4-0.3-1-0.2-1.3,0.2c-1.6,2.3-2,4.3-1.8,5.9 c-2.3-0.1-4.7-0.2-7.2-0.2c-0.2-1.4,0.3-2.9,1.5-4.7c0.3-0.4,0.2-1-0.2-1.3c-0.4-0.3-1-0.2-1.3,0.2c-1.5,2.2-2,4.1-1.8,5.7 c-2.4,0-4.8,0.1-7.1,0.3c-0.3-1.5,0.2-3.1,1.4-4.9c0.3-0.4,0.2-1-0.2-1.3c-0.4-0.3-1-0.2-1.3,0.2c-1.7,2.4-2.1,4.4-1.8,6.1 c-21.3,1.6-36.7,8-36.7,15.9c0,0.7,0.1,1.4,0.4,2.1v5.4c0,2.6,0.9,5,2.6,6.8v27.5V73v10c0,10.4,22.8,15,45.4,15 c22.6,0,45.4-4.6,45.4-15V73v-6.8v-30c0.6-1.3,0.9-2.8,0.9-4.2v-7.6C97.3,16.4,81.3,9.9,59.4,8.4z M95.4,24.4c0,1.9-1.4,3.9-4,5.7 C89.7,24.3,78.5,19.7,63.1,18c0.3-0.9,0.3-1.9,0.1-2.9c-0.3-1.4-1.1-2.9-2.2-4c-0.2-0.2-0.4-0.4-0.6-0.7 C81.7,12,95.4,18.4,95.4,24.4z M41.2,30.1c0.2,0.2,0.5,0.3,0.7,0.3c0.2,0,0.4-0.1,0.6-0.2c0.4-0.3,0.5-0.9,0.1-1.3 c-1.3-1.6-1.5-3.5-0.6-6c0.3-0.8,0.7-1.5,1.2-2c0.5-0.5,0.9-1.1,1.2-1.6c1.8-0.1,3.7-0.1,5.6-0.1c0.5,0,0.9,0,1.4,0 c-0.1,0.2-0.2,0.3-0.4,0.4c-0.7,0.7-1.2,1.6-1.6,2.6c-1.2,3.2-0.9,5.7,0.9,7.9c0.2,0.2,0.5,0.3,0.7,0.3c0.2,0,0.4-0.1,0.6-0.2 c0.4-0.3,0.5-0.9,0.1-1.3c-1.3-1.6-1.5-3.5-0.6-6c0.3-0.8,0.7-1.5,1.2-2c0.5-0.5,0.9-1.1,1.2-1.7c2.3,0.1,4.4,0.2,6.5,0.4 c0,0,0,0,0,0c-0.7,0.7-1.2,1.6-1.6,2.6c-1.2,3.2-0.9,5.7,0.9,7.9c0.2,0.2,0.5,0.3,0.7,0.3c0.2,0,0.4-0.1,0.6-0.2 c0.4-0.3,0.5-0.9,0.1-1.3c-1.3-1.6-1.5-3.5-0.6-6c0.3-0.8,0.7-1.5,1.2-2c0.3-0.4,0.6-0.7,0.9-1.1c16.3,1.7,26.8,6.6,27.4,11.4 c-7.4,4.3-21.6,7.6-39.7,7.6c-18.2,0-32.3-3.3-39.7-7.6c0.7-5.2,13-10.6,31.8-11.8c-0.1,0.1-0.1,0.1-0.2,0.2 c-0.7,0.7-1.2,1.6-1.6,2.6C39.2,25.4,39.5,28,41.2,30.1z M58.1,10.2c0.4,0.9,1,1.6,1.6,2.2c0.9,0.8,1.5,1.9,1.7,3 c0.2,0.8,0.1,1.6-0.2,2.4c-2.3-0.2-4.6-0.4-7-0.4c0.1-0.7,0.1-1.5,0-2.3c-0.3-1.4-1.1-2.9-2.2-4c-0.4-0.3-0.6-0.7-0.9-1 C53.5,10,55.8,10.1,58.1,10.2z M48.9,10c0.4,1,1.1,1.8,1.7,2.4c0.9,0.8,1.5,1.9,1.7,3c0.1,0.7,0.1,1.3,0,1.9c-0.8,0-1.5,0-2.3,0 c-1.7,0-3.3,0-4.9,0.1c0.1-0.8,0.1-1.5,0-2.3c-0.3-1.4-1.1-2.9-2.2-4c-0.3-0.3-0.5-0.5-0.7-0.8C44.3,10.1,46.6,10,48.9,10z M40,10.4c0.4,0.8,1,1.5,1.6,2.1c0.9,0.8,1.5,1.9,1.7,3c0.1,0.7,0.1,1.4-0.1,2.1c-18.6,1-32.7,6.1-34.6,12.6c-2.6-1.8-4-3.8-4-5.7 C4.6,18.3,18.4,11.9,40,10.4z M85.5,73.9c-2.1,0.8-4.5,1.4-7.2,2V46.3c2.4-0.7,4.8-1.6,7.2-2.5V73.9z M76.4,76.3 c-2.2,0.4-4.6,0.8-7.2,1.1V48.6c2.4-0.5,4.8-1.1,7.2-1.7V76.3z M67.3,77.6c-2.8,0.3-5.9,0.5-9,0.7V50.2c3-0.2,6-0.7,9-1.2V77.6z M56.4,78.3c-1.8,0.1-3.6,0.1-5.4,0.1c-1.8,0-3.6,0-5.4-0.1v-28c1.7,0.1,3.4,0.1,5.1,0.1c1.9,0,3.8-0.1,5.8-0.2V78.3z M43.7,78.3 c-3.1-0.1-6.2-0.4-9-0.7V49.1c3,0.5,6,0.9,9,1.1V78.3z M32.8,77.4c-3.3-0.4-6.3-0.9-9-1.5V46.7c3,0.9,6,1.6,9,2.2V77.4z M22,75.5 c-2.7-0.7-5.2-1.4-7.2-2.3V43.6c2.4,0.9,4.8,1.7,7.2,2.5V75.5z M12.9,72.3c-3.4-1.8-5.4-3.8-5.4-6.1V40.4c0.5,0.4,1.1,0.7,1.7,1 c1.2,0.5,2.5,1,3.7,1.5V72.3z M94.5,83c0,8.6-21.9,13.1-43.5,13.1C29.4,96.1,7.5,91.6,7.5,83V73v-2.3c1.2,1.4,3.1,2.6,5.4,3.7 c0.6,0.3,1.2,0.6,1.9,0.8c2.1,0.8,4.5,1.6,7.2,2.2c0.6,0.1,1.2,0.3,1.9,0.4c7.9,1.7,17.6,2.4,27.2,2.4c5.9,0,11.7-0.3,17.2-0.9 c0,0,0,0,0,0c0,0,0,0,0,0c2.8-0.3,5.6-0.7,8.1-1.2c0.6-0.1,1.3-0.2,1.9-0.4c2.6-0.5,5-1.2,7.2-1.9c0.7-0.2,1.3-0.5,1.9-0.7 c3.1-1.3,5.6-2.7,7.2-4.5V73V83z M94.5,66.2c0,2.6-2.6,5-7.2,6.9v-30c1.3-0.5,2.6-1.1,4-1.7c1.2-0.6,2.3-1.4,3.2-2.3V66.2z M95.4,32c0,1.1-0.2,2.2-0.6,3.2c-0.1,0.1-0.2,0.3-0.2,0.6c-0.8,1.7-2.2,3.1-4,3.9c-1.1,0.5-2.1,1-3.2,1.4 c-0.6,0.3-1.2,0.5-1.8,0.8c-2.4,0.9-4.8,1.8-7.2,2.5c-0.6,0.2-1.3,0.4-1.9,0.6c-2.4,0.7-4.8,1.3-7.2,1.8c-0.6,0.1-1.3,0.3-1.9,0.4 c-3,0.6-6,1-9,1.2c-0.6,0.1-1.3,0.1-1.9,0.1c-3.6,0.2-7.2,0.3-10.8,0c-0.6,0-1.3-0.1-1.9-0.1c-3-0.2-6-0.6-9-1.1 c-0.6-0.1-1.3-0.2-1.9-0.3c-3-0.6-6-1.3-9-2.2c-0.6-0.2-1.3-0.4-1.9-0.6c-2.4-0.7-4.8-1.6-7.2-2.5c-0.6-0.2-1.2-0.5-1.8-0.7 c-1-0.4-2-0.8-3-1.3c-0.9-0.4-1.7-1-2.5-1.7c-0.7-0.7-1.4-1.6-1.8-2.5C5.2,34.3,5,33.1,5,31.9v-2.4c0.9,1,2.1,1.9,3.4,2.8 c0.7,0.5,1.5,0.9,2.4,1.4c7.4,3.8,19.4,6.3,33.4,6.9c0.4,0,0.7,0,1.1,0c1.6,0.1,3.1,0.1,4.8,0.1c2.4,0,4.7-0.1,6.9-0.2 c0.3,0,0.6,0,0.8,0c13.2-0.7,24.4-3.2,31.5-6.8c0.9-0.4,1.7-0.9,2.4-1.4c1.6-1,2.9-2.1,3.8-3.2V32z"></path> <path fill="#4d4c4c" d="M90.4,81C63.2,90.3,36,90.3,9.6,81c-0.5-0.2-1,0.1-1.2,0.6c-0.2,0.5,0.1,1,0.6,1.2c13.4,4.7,27,7,40.7,7 c13.8,0,27.5-2.3,41.3-7c0.5-0.2,0.8-0.7,0.6-1.2C91.4,81.1,90.9,80.9,90.4,81z"></path> </g> </svg> 