<?xml version="1.0" encoding="UTF-8"?> <!-- Generator: Adobe Illustrator 17.1.0, SVG Export Plug-In . SVG Version: 6.00 Build 0) --> <svg xmlns="http://www.w3.org/2000/svg" xmlns:xlink="http://www.w3.org/1999/xlink" id="Слой_11" x="0px" y="0px" viewBox="0 0 100 100" xml:space="preserve"> <path fill="#4d4c4c" d="M96.8,38.6H83.6c-0.5,0-0.8,0.3-0.9,0.8l-2.9,15.6H73c3.5-5,4.1-10.4,1.5-16.2c-2-4.5-1.3-9.7,1.8-13.3 c3.3-3.9,8-7.6,12.5-11.2c0.9-0.8,1.9-1.5,2.8-2.3c0.2-0.2,0.3-0.4,0.3-0.7c0-0.3-0.1-0.5-0.3-0.7l-8.5-8.3C82.9,2.1,82.7,2,82.4,2 c-0.3,0-0.5,0.1-0.7,0.3l-1.5,1.8c-5.4,6.7-10.9,13.7-16,16.6c-1.9,1.1-4.3,1.1-6.3,0.1l-3.9-2c-0.1,0-0.2-0.1-0.3-0.1 c-8.1-1.1-15,1.7-20.7,8.4c-0.2,0.2-0.2,0.5-0.2,0.7c0,0.3,0.2,0.5,0.4,0.6l4.1,2.8c-3.2,1.3-6.2,3.8-8.9,7.6 c-0.2,0.3-0.2,0.8,0,1.1c2.1,2.7,4.2,4.3,6.6,4.8c-1.9,3.8-2.6,6.7-3.3,9.3c-0.1,0.3-0.1,0.5-0.2,0.8H20.3l-2.9-15.6 c-0.1-0.4-0.5-0.8-0.9-0.8H3.2c-0.5,0-0.9,0.4-0.9,0.9c0,0.5,0.4,0.9,0.9,0.9h0.1l6.2,31.9l0.4,1.9l1.7,8.6l0.4,1.9l2.4,12.6 c0.1,0.4,0.5,0.8,0.9,0.8h12h12.4h8.9h1.7h1.3h8.9h12.4h12c0.4,0,0.8-0.3,0.9-0.8l2.4-12.6l0.4-1.9l1.7-8.6l0.4-1.9l6.2-31.9h0.1 c0.5,0,0.9-0.4,0.9-0.9C97.8,39,97.4,38.6,96.8,38.6z M79.4,56.8l-2.9,15.6H64.8l2.1-15.6h2h2.6H79.4z M74.6,82.8H63.4l1.2-8.6h11.6 L74.6,82.8z M51.5,82.8h-0.4v-8.6h0.4h11.1l-1.2,8.6H51.5z M38.5,82.8l-1.2-8.6h11.1h0.8v8.6h-0.8H38.5z M23.8,74.2h11.6l1.2,8.6 H25.4L23.8,74.2z M48.5,56.8h0.8v15.6h-0.8H37.1L35,56.8H48.5z M51.5,56.8h10.2h2.2H65l-2.1,15.6H51.5h-0.4V56.8H51.5z M33.8,54.6 c0.7-2.9,1.5-5.9,3.8-10c0.2-0.3,0.2-0.6,0-0.9c-0.2-0.3-0.5-0.5-0.8-0.5c-2.2,0-4.2-1.2-6.2-3.7c2.8-3.8,5.9-6.1,9.2-6.9 c0.4-0.1,0.6-0.4,0.7-0.7c0.1-0.4-0.1-0.7-0.4-0.9l-4.8-3.3c5.1-5.7,11-7.9,18.1-7l3.8,1.9c2.6,1.3,5.7,1.3,8.1-0.1 c5.3-3.1,11-10.2,16.5-17.1l0.8-1l7,6.8c-0.7,0.5-1.3,1.1-2,1.6c-4.6,3.7-9.3,7.4-12.7,11.5c-3.5,4.2-4.4,10.2-2.1,15.3 c2.5,5.5,1.8,10.6-2.1,15.4h-7.8c-1.9-3.7-2.7-7.6-2.5-11.8c0.3-0.3,0.4-0.7,0.2-1c0-0.1-0.1-0.1-0.1-0.2c0.2-1.5,0.5-3.1,0.9-4.6 c0.1-0.5-0.1-1-0.6-1.2c-0.5-0.1-1,0.1-1.2,0.6c-0.5,1.7-0.8,3.5-1,5.1c-4.4,1.5-8.7,0.5-13.2-3.1c-0.4-0.3-1-0.3-1.3,0.1 c-0.3,0.4-0.3,1,0.1,1.3c3.5,2.8,7,4.2,10.5,4.2c1.3,0,2.5-0.2,3.7-0.6c-0.1,3.9,0.7,7.5,2.3,11h-9.2h-1.3h-1.7H33.7 C33.7,54.8,33.7,54.7,33.8,54.6z M31.3,56.8h1.8l0,0.3l2.1,15.2H23.5l-2.9-15.6H31.3z M15.7,40.5l2.7,14.4H8L5.2,40.5H15.7z M8.3,56.8h10.4l2.9,15.6H11.3L8.3,56.8z M11.7,74.2h10.2l1.6,8.6H13.3L11.7,74.2z M15.9,96.1l-2.2-11.4h10.2L26,96.1H15.9z M27.9,96.1l-2.1-11.4h11.1l1.6,11.4H27.9z M40.4,96.1l-1.6-11.4h9.7h0.8v11.4h-0.8H40.4z M51.2,96.1V84.7h0.4h9.7l-1.6,11.4h-8.1 H51.2z M63.1,84.7h11.1l-2.1,11.4H61.5L63.1,84.7z M84.1,96.1H74l2.1-11.4h10.2L84.1,96.1z M86.7,82.8H76.5l1.6-8.6h10.2L86.7,82.8z M88.7,72.4H78.4l2.9-15.6h10.4L88.7,72.4z M92,54.9H81.7l2.7-14.4h10.5L92,54.9z"></path> </svg> 