<?xml version="1.0" encoding="UTF-8"?> <!-- Generator: Adobe Illustrator 17.1.0, SVG Export Plug-In . SVG Version: 6.00 Build 0) --> <svg xmlns="http://www.w3.org/2000/svg" xmlns:xlink="http://www.w3.org/1999/xlink" id="Слой_1" x="0px" y="0px" viewBox="0 0 100 100" xml:space="preserve"> <circle fill="#B3B3B3" cx="50" cy="50" r="50"></circle> <path fill="#FFFFFF" d="M61.5,25h-23C31.1,25,25,31.1,25,38.5v22.9C25,68.9,31.1,75,38.5,75h22.9C68.9,75,75,68.9,75,61.5v-23 C75,31.1,68.9,25,61.5,25z M50,63.7c-7.5,0-13.7-6.1-13.7-13.7S42.5,36.3,50,36.3S63.7,42.5,63.7,50S57.5,63.7,50,63.7z M64,39.6 c-2.2,0-4-1.8-4-4s1.8-4,4-4c2.2,0,4,1.8,4,4S66.2,39.6,64,39.6z"></path> <path fill="#FFFFFF" d="M50,39.3c-5.9,0-10.7,4.8-10.7,10.7S44.1,60.7,50,60.7S60.7,55.9,60.7,50S55.9,39.3,50,39.3z"></path> <path fill="#FFFFFF" d="M64,34.4c-0.6,0-1.1,0.5-1.1,1.1s0.5,1.1,1.1,1.1s1.1-0.5,1.1-1.1S64.6,34.4,64,34.4z"></path> </svg> 