<?xml version="1.0" encoding="UTF-8"?> <!-- Generator: Adobe Illustrator 17.1.0, SVG Export Plug-In . SVG Version: 6.00 Build 0) --> <svg xmlns="http://www.w3.org/2000/svg" xmlns:xlink="http://www.w3.org/1999/xlink" id="Слой_2" x="0px" y="0px" viewBox="0 0 100 100" xml:space="preserve"> <path d="M98.2,37L52.8,16.2c-0.4-0.2-0.8-0.2-1.1,0L1.9,36.7C1.4,36.9,1,37.4,1,38c0,0.6,0.3,1.1,0.8,1.3l18,8.8v15.4 c0,0.1,0,0.1,0,0.2c0,0.1,0,0.1,0,0.2c0,6.4,15.1,9.8,30.1,9.8s30.1-3.4,30.1-9.8c0,0,0-0.1,0-0.1c0-0.2,0.1-0.3,0-0.5l-0.1-14.4 l7.2-3.7v20.4c-2.4,0.8-4.1,3-4.1,5.6v9.2c0,1.9,1.6,3.5,3.5,3.5h4.8c1.9,0,3.5-1.6,3.5-3.5v-9.2c0-2.9-2.1-5.3-4.9-5.8V43.8 l8.3-4.2c0.5-0.2,0.8-0.8,0.8-1.3C99,37.7,98.7,37.2,98.2,37z M92,71.2v9.2c0,0.4-0.3,0.7-0.7,0.7h-4.8c-0.4,0-0.7-0.3-0.7-0.7v-9.2 c0-1.3,0.8-2.4,2-2.8c0.3-0.1,0.7-0.2,1.1-0.2c0.1,0,0.3,0,0.4,0C90.9,68.5,92,69.7,92,71.2z M49.9,70.8c-16.6,0-27.2-4.1-27.2-6.9 c0-2.8,10.6-6.9,27.2-6.9c16.6,0,27.2,4.1,27.2,6.9C77.1,66.7,66.5,70.8,49.9,70.8z M49.9,54.1c-11,0-22.1,1.8-27.2,5.4v-10v-1.4 v-1.7v-2.7c0-2.8,10.6-6.9,27.2-6.9c16,0,26.4,3.8,27.1,6.6l0,0.6l0,3.2l0,0.9l0,2.1l0,9.3C72,55.9,60.9,54.1,49.9,54.1z M89.7,40.7 L87.1,42l-7.2,3.7l0-1.4c0-0.2,0-0.4,0-0.6c0-0.2,0-0.4-0.1-0.6c-0.2-1.4-1.3-2.7-2.9-3.8c-5.1-3.5-16.2-5.3-27.1-5.3 c-11,0-22.1,1.8-27.2,5.4c-1.8,1.3-2.9,2.7-2.9,4.4v1.3L5.9,38.1l46.3-19l42.1,19.3L89.7,40.7z"></path> </svg> 