<?xml version="1.0" encoding="UTF-8"?> <!-- Generator: Adobe Illustrator 17.1.0, SVG Export Plug-In . SVG Version: 6.00 Build 0) --> <svg xmlns="http://www.w3.org/2000/svg" xmlns:xlink="http://www.w3.org/1999/xlink" id="Слой_1" x="0px" y="0px" viewBox="0 0 100 100" xml:space="preserve"> <circle fill="#B3B3B3" cx="50" cy="50" r="50"></circle> <path fill="#FFFFFF" d="M75.5,62.1c-0.1-0.2-1-2.2-5.4-6.2c-4.5-4.2-3.9-3.5,1.5-10.8c3.3-4.4,4.6-7.1,4.2-8.3 c-0.4-1.1-2.8-0.8-2.8-0.8l-8.1,0c0,0-0.6-0.1-1,0.2c-0.4,0.3-0.7,0.9-0.7,0.9s-1.3,3.4-3,6.3c-3.6,6.1-5.1,6.5-5.7,6.1 c-1.4-0.9-1-3.6-1-5.5c0-6,0.9-8.4-1.8-9.1c-0.9-0.2-1.5-0.4-3.8-0.4c-2.9,0-5.3,0-6.7,0.7c-0.9,0.5-1.6,1.5-1.2,1.5 c0.5,0.1,1.8,0.3,2.4,1.2c0.8,1.1,0.8,3.7,0.8,3.7s0.5,7-1.1,7.9c-1.1,0.6-2.6-0.6-5.8-6.2c-1.7-2.9-2.9-6-2.9-6s-0.2-0.6-0.7-0.9 c-0.5-0.4-1.2-0.5-1.2-0.5l-7.7,0c0,0-1.2,0-1.6,0.5c-0.4,0.4,0,1.4,0,1.4S28.2,52,35,59.2c6.3,6.5,13.4,6.1,13.4,6.1h3.2 c0,0,1-0.1,1.5-0.6c0.5-0.5,0.4-1.4,0.4-1.4s-0.1-4.3,1.9-5c2-0.6,4.5,4.2,7.2,6c2,1.4,3.6,1.1,3.6,1.1l7.2-0.1 C73.5,65.3,77.3,65,75.5,62.1z"></path> </svg> 