<?xml version="1.0" encoding="UTF-8"?> <!-- Generator: Adobe Illustrator 17.1.0, SVG Export Plug-In . SVG Version: 6.00 Build 0) --> <svg xmlns="http://www.w3.org/2000/svg" xmlns:xlink="http://www.w3.org/1999/xlink" id="Слой_1" x="0px" y="0px" viewBox="0 0 100 100" xml:space="preserve"> <circle fill="#ADADAD" cx="50" cy="50" r="50"></circle> <path fill="#FFFFFF" d="M50,25L50,25L50,25c-13.8,0-25,11.2-25,25c0,5.5,1.8,10.5,4.8,14.7l-3.1,9.3l9.6-3.1c4,2.6,8.7,4.1,13.8,4.1 c13.8,0,25-11.2,25-25S63.8,25,50,25z"></path> <path fill="#ADADAD" d="M64.6,60.3c-0.6,1.7-3,3.1-4.9,3.5c-1.3,0.3-3,0.5-8.8-1.9c-7.3-3-12.1-10.5-12.4-11c-0.4-0.5-3-4-3-7.5 c0-3.6,1.8-5.3,2.6-6.1c0.6-0.6,1.6-0.9,2.6-0.9c0.3,0,0.6,0,0.8,0c0.7,0,1.1,0.1,1.6,1.2c0.6,1.5,2.1,5,2.2,5.4 c0.2,0.4,0.4,0.9,0.1,1.4c-0.2,0.5-0.4,0.7-0.8,1.1c-0.4,0.4-0.7,0.7-1.1,1.2c-0.3,0.4-0.7,0.8-0.3,1.6c0.4,0.7,1.9,3.1,4.1,5 c2.8,2.5,5.1,3.3,5.9,3.6c0.6,0.3,1.3,0.2,1.8-0.3c0.6-0.6,1.2-1.6,2-2.6c0.5-0.7,1.1-0.8,1.8-0.5c0.7,0.2,4.2,2,5,2.4 c0.7,0.4,1.2,0.5,1.4,0.9C65.2,57.1,65.2,58.6,64.6,60.3z"></path> </svg> 